	[img]http://www.ultraimg.com/images/c2wL.jpg[/img]

www.imdb.com/title/tt0765446
Mr Deeds Notes..
cropped and resized vid a bit...ran slight denoiser and tweeked colors a bit...made 90+ cuts to the Line,and filterd it to get more punch on low end...also re-mixed it to clean up any slight noise that was present...muxed it back to our vid and done....

Encoder..Devildeeds

Sources-R5 BRRip/BruceBanner/ToothFairy


Complete name                            : Escape from planet Earth 2013
Format                                   : AVI
Format/Info                              : Audio Video Interleave
File size                                : 808 MiB
Duration                                 : 1h 22mn
Overall bit rate                         : 1 370 Kbps
Writing application                      : VirtualDubMod 1.5.10.2 (build 2540/release)
Writing library                          : VirtualDub build 32842/release

Video
ID                                       : 0
Format                                   : MPEG-4 Visual
Format profile                           : Advanced Simple@L5
Format settings, BVOP                    : 2
Format settings, QPel                    : No
Format settings, GMC                     : No warppoints
Format settings, Matrix                  : Default (H.263)
Muxing mode                              : Packed bitstream
Codec ID                                 : XVID
Codec ID/Hint                            : XviD
Duration                                 : 1h 22mn
Bit rate                                 : 1 230 Kbps
Width                                    : 700 pixels
Height                                   : 304 pixels
Display aspect ratio                     : 2.35:1
Frame rate                               : 23.976 fps
Color space                              : YUV
Chroma subsampling                       : 4:2:0
Bit depth                                : 8 bits
Scan type                                : Progressive
Compression mode                         : Lossy
Bits/(Pixel*Frame)                       : 0.241
Stream size                              : 725 MiB (90%)
Writing library                          : XviD 64

Audio
ID                                       : 1
Format                                   : MPEG Audio
Format version                           : Version 1
Format profile                           : Layer 3
Mode                                     : Joint stereo
Mode extension                           : MS Stereo
Codec ID                                 : 55
Codec ID/Hint                            : MP3
Duration                                 : 1h 22mn
Bit rate mode                            : Constant
Bit rate                                 : 128 Kbps
Channel(s)                               : 2 channels
Sampling rate                            : 44.1 KHz
Compression mode                         : Lossy
Stream size                              : 75.5 MiB (9%)
Alignment                                : Aligned on interleaves
Interleave, duration                     : 26 ms (0.63 video frame)
Interleave, preload duration             : 522 ms
Writing library                          : LAME3.98.2

Special Thanks To Mr Deeds On This We Were Gonna Use The OFFLiNE Encode But Decided Considering
All The Work Put In..He Deserves Majority Of The Credit..Shoutouts Tooth Fairy..Digtl and LiNeTazTic

2 Samples Included..Enjoy


 
http://imgbox.com/g/t7Kv6iBLcv